# xmcd
#
# Track frame offsets:
#	150
#	19365
#	63350
#	106990
#	127710
#	171450
#	215337
#
# Disc length: 3146
#
# Revision: 1
# Processed by: cddbd v1.5.1PL0 Copyright (c) Steve Scherf et al.
# Submitted via: CDex 1.51
# Normalized: r0:TRMNUM
#
DISCID=5c0c4807
DTITLE=宇宙の騎士　テッカマンブレード? - NEXT GENERATION 1
DYEAR=2005
DGENRE=Anime
TTITLE0=マスカレード　-小阪由美子
TTITLE1=「第一回」ほっぺでゴメンね・・初めてのキス
TTITLE2=「第二回」痛いんだもん。涙がでちゃうぅ！
TTITLE3=アンジェラ
TTITLE4=「第三回」弾ける光が・・とまんないんですぅ！
TTITLE5=「第四回」愛があるから、やっちゃいます！
TTITLE6=アンジャラ　-小阪由美子
EXTD=YEAR: 2005-01-16
EXTT0=
EXTT1=
EXTT2=
EXTT3=
EXTT4=
EXTT5=
EXTT6=
PLAYORDER=
